<?xml version="1.0" encoding="UTF-8"?>
<svg width="564px" height="431px" viewBox="0 0 564 431" version="1.1" xmlns="http://www.w3.org/2000/svg" xmlns:xlink="http://www.w3.org/1999/xlink">
    <!-- Generator: Sketch 51.2 (57519) - http://www.bohemiancoding.com/sketch -->
    <title>mushroom</title>
    <desc>Created with Sketch.</desc>
    <defs></defs>
    <g id="Page-1" stroke="none" stroke-width="1" fill="none" fill-rule="evenodd">
        <g id="mushroom" transform="translate(-12.000000, -31.000000)" fill="#264653" fill-rule="nonzero">
            <path d="M407.449,38.02 C331.108,38.02 269,103.14 269,183.182 C269,197.886 276.95,218.49 314.823,233.151 C323.603,236.55 333.463,239.392 344.093,241.656 L332.167,372.228 C329.978,395.532 337.601562,427.800219 352.922,444.695219 C368.242437,461.590219 386.673,469.199219 407.449,469.199219 C428.227,469.199219 447.593,460.495219 461.978,444.691219 C477.354,427.800219 484.913,395.529 482.72,372.226 L471.914673,241.438477 C474.307558,242.254159 483.693667,239.491667 500.073,233.151 C537.949,218.489 545.898,197.885 545.898,183.181 C545.898,103.14 483.79,38.02 407.449,38.02 Z" id="Shape" transform="translate(407.449000, 253.609609) rotate(24.000000) translate(-407.449000, -253.609609) "></path>
            <path d="M156.712032,31.2462419 C80.3710323,31.2462419 18.2630323,96.3662419 18.2630323,176.408242 C18.2630323,191.112242 26.2130323,211.716242 64.0860323,226.377242 C72.8660323,229.776242 82.7260323,232.618242 93.3560323,234.882242 L81.4300323,365.454242 C79.2410323,388.758242 86.8645948,421.026461 102.185032,437.921461 C117.50547,454.816461 135.936032,462.425461 156.712032,462.425461 C177.490032,462.425461 196.856032,453.721461 211.241032,437.917461 C226.617032,421.026461 234.176032,388.755242 231.983032,365.452242 L221.177705,234.664718 C223.57059,235.480401 232.956699,232.717909 249.336032,226.377242 C287.212032,211.715242 295.161032,191.111242 295.161032,176.407242 C295.161032,96.3662419 233.053032,31.2462419 156.712032,31.2462419 Z" id="Shape" transform="translate(156.712032, 246.835851) rotate(-5.000000) translate(-156.712032, -246.835851) "></path>
        </g>
    </g>
</svg>