<?xml version="1.0" encoding="UTF-8"?>
<svg width="512px" height="492px" viewBox="0 0 512 492" version="1.1" xmlns="http://www.w3.org/2000/svg" xmlns:xlink="http://www.w3.org/1999/xlink">
    <!-- Generator: Sketch 51.2 (57519) - http://www.bohemiancoding.com/sketch -->
    <title>Shape</title>
    <desc>Created with Sketch.</desc>
    <defs></defs>
    <g id="Page-1" stroke="none" stroke-width="1" fill="none" fill-rule="evenodd">
        <path d="M510.652344,185.882812 C507.28125,175.515625 498.085938,168.175781 487.25,167.195312 L339.453125,153.777344 L281.042969,17.027344 C276.730469,6.980469 266.917969,0.496094 255.996094,0.496094 C245.074219,0.496094 235.257812,6.980469 230.972656,17.027344 L172.5625,153.777344 L24.742188,167.195312 C13.90625,168.195312 4.730469,175.535156 1.339844,185.882812 C-2.03125,196.25 1.082031,207.621094 9.277344,214.808594 L121,312.773438 L88.058594,457.859375 C85.648438,468.527344 89.789062,479.558594 98.640625,485.957031 C103.398438,489.414062 108.988281,491.140625 114.597656,491.140625 C119.417969,491.140625 124.242188,489.859375 128.550781,487.28125 L255.996094,411.078125 L383.417969,487.28125 C392.765625,492.867188 404.519531,492.355469 413.351562,485.957031 C422.203125,479.558594 426.34375,468.527344 423.933594,457.859375 L390.992188,312.773438 L502.714844,214.808594 C510.90625,207.621094 514.023438,196.273438 510.652344,185.882812 Z" id="Shape" fill="#F1F7F9" fill-rule="nonzero"></path>
    </g>
</svg>